HIERARCHY
ROOT root     
{
	OFFSET 0.0000 0.0000 0.0000
	CHANNELS 6 Xposition Yposition Zposition Zrotation Yrotation Xrotation
	JOINT pelvis   
	{
		OFFSET 0.0000 0.0000 0.0000
		CHANNELS 3 Zrotation Yrotation Xrotation
		JOINT thorax   
		{
			OFFSET 0.0000 23.0750 -5.0000
			CHANNELS 3 Zrotation Yrotation Xrotation
			JOINT rclavicle
			{
				OFFSET 0.0000 28.0009 0.0000
				CHANNELS 3 Zrotation Yrotation Xrotation
				JOINT rhumerus 
				{
					OFFSET -18.5725 5.5939 0.0000
					CHANNELS 3 Zrotation Yrotation Xrotation
					JOINT rradius  
					{
						OFFSET -24.8459 0.0000 0.0000
						CHANNELS 3 Zrotation Yrotation Xrotation
						JOINT rhand    
						{
							OFFSET -24.5477 0.0000 0.0000
							CHANNELS 3 Zrotation Yrotation Xrotation
							End Site
							{
								OFFSET -8.1826 0.0000 0.0000
							}
						}
					}
				}
			}
			JOINT lclavicle
			{
				OFFSET 0.0000 28.0009 0.0000
				CHANNELS 3 Zrotation Yrotation Xrotation
				JOINT lhumerus 
				{
					OFFSET 18.5725 5.5939 0.0000
					CHANNELS 3 Zrotation Yrotation Xrotation
					JOINT lradius  
					{
						OFFSET 24.8459 0.0000 0.0000
						CHANNELS 3 Zrotation Yrotation Xrotation
						JOINT lhand    
						{
							OFFSET 24.5477 0.0000 0.0000
							CHANNELS 3 Zrotation Yrotation Xrotation
							End Site
							{
								OFFSET 8.1826 0.0000 0.0000
							}
						}
					}
				}
			}
			JOINT head     
			{
				OFFSET 0.0000 35.2030 0.0000
				CHANNELS 3 Zrotation Yrotation Xrotation
				End Site
				{
					OFFSET 0.0000 11.7343 0.0000
				}
			}
		}
		JOINT rfemur   
		{
			OFFSET -8.2817 0.0000 0.0000
			CHANNELS 3 Zrotation Yrotation Xrotation
			JOINT rtibia   
			{
				OFFSET 0.0000 -43.3627 0.0000
				CHANNELS 3 Zrotation Yrotation Xrotation
				JOINT rfoot    
				{
					OFFSET 0.0000 -38.2947 0.0000
					CHANNELS 3 Zrotation Yrotation Xrotation
					JOINT rtoes    
					{
						OFFSET 0.0000 0.0000 16.6054
						CHANNELS 3 Zrotation Yrotation Xrotation
						End Site
						{
							OFFSET 0.0000 0.0000 5.5351
						}
					}
				}
			}
		}
		JOINT lfemur   
		{
			OFFSET 8.2817 0.0000 0.0000
			CHANNELS 3 Zrotation Yrotation Xrotation
			JOINT ltibia   
			{
				OFFSET 0.0000 -43.3627 0.0000
				CHANNELS 3 Zrotation Yrotation Xrotation
				JOINT lfoot    
				{
					OFFSET 0.0000 -38.2947 0.0000
					CHANNELS 3 Zrotation Yrotation Xrotation
					JOINT ltoes    
					{
						OFFSET 0.0000 0.0000 16.6054
						CHANNELS 3 Zrotation Yrotation Xrotation
						End Site
						{
							OFFSET 0.0000 0.0000 5.5351
						}
					}
				}
			}
		}
	}
}
MOTION
Frames: 15
Frame Time: .0333333
-2.8891 84.693 4.6181 41.5235 -85.2875 -22.4014 0 -0 0 5.96735 -9.34229 -9.58709 25.8404 -7.52363 3.58693e-05 59.1301 1.15379 -4.08801 0 74.7327 0 -12.7332 5.81561 -0.649487 -27.1051 11.6323 1.27641e-05 -37.0957 -12.3469 2.66874 -180 -85.9082 180 8.60808 -3.40353 -0.256206 -18.5985 4.88693 -11.8641 4.82149 -1.89728 -18.2827 -0 -0 26.5067 1.19966e-06 -8.19825 -8.62133 1.23721 6.05548e-06 -18.4336 0.879241 4.88515 -22.1263 -0 -0 62.0355 7.23099e-05 9.415 23.1905 3.73595 -2.41582e-05 -45.2737 
-4.1916 85.002 4.5173 47.9316 -85.3685 -28.6202 0 -0 0 5.10371 -8.53346 -9.46679 25.729 -7.48144 3.26666e-05 59.0924 1.4925 -2.57113 -0 74.6543 -0 -11.0544 6.33813 -0.613902 -27.3471 11.7916 -9.14248e-05 -37.059 -11.7895 2.15676 180 -86.4568 180 8.43289 -3.17857 -0.234401 -18.5849 4.79717 -11.7488 4.39827 -1.8432 -17.1774 -0 -0 25.5559 4.88134e-07 -7.83924 -7.45908 1.024 -3.76135e-06 -20.54 0.159191 4.90539 -23.57 -0 -0 62.0193 -3.91775e-05 10.4729 21.7139 3.91234 -7.94463e-06 -44.518 
-5.4993 85.322 4.4228 55.0727 -85.4249 -35.5794 0 -0 0 4.2278 -7.69581 -9.31421 25.621 -7.42481 -5.1224e-05 58.9781 1.91381 -1.02798 0 74.624 0 -9.32146 6.79375 -0.554509 -27.5753 11.9494 0.000109233 -36.9552 -11.2128 1.65262 180 -87.002 180 8.27553 -2.9755 -0.215298 -18.5198 4.70607 -11.6767 3.957 -1.87297 -16.0843 -0 -0 24.5908 2.78084e-06 -7.35725 -6.16389 0.79431 2.06288e-06 -23.3006 -0.603632 4.97983 -24.952 -0 -0 61.7787 6.54877e-05 11.627 20.265 4.07631 2.8955e-05 -43.9497 
-6.8109 85.647 4.3306 62.8415 -85.4547 -43.1699 0 -0 0 3.3456 -6.84064 -9.14772 25.5147 -7.35244 2.98486e-05 58.793 2.4107 0.541712 -1.28195e-06 74.6425 -9.7736e-07 -7.61373 7.14351 -0.475913 -27.775 12.1041 5.88512e-05 -36.816 -10.6042 1.15774 -180 -87.5519 180 8.14486 -2.79932 -0.1993 -18.3962 4.62166 -11.6414 3.50347 -1.96442 -15.0131 -0 -0 23.6098 -1.2606e-06 -6.76692 -4.73679 0.561401 7.38153e-06 -26.5933 -1.39448 5.08637 -26.2795 -0 -0 61.324 0.000108109 12.8161 18.7993 4.19252 -4.69711e-06 -43.2517 
-8.1243 85.972 4.2368 71.0187 -85.4505 -51.1637 0 -0 0 2.46687 -5.98032 -8.98647 25.4135 -7.26457 9.67212e-05 58.5389 2.97473 2.14643 -1.28722e-06 74.7149 -9.8265e-07 -6.00381 7.3616 -0.38661 -27.9324 12.2603 2.2128e-06 -36.671 -9.96517 0.678336 -180 -88.1064 180 8.0455 -2.65153 -0.186502 -18.2103 4.55089 -11.6413 3.04732 -2.08166 -13.9759 -0 -0 22.6182 -3.28236e-06 -6.09208 -3.18266 0.339501 1.4714e-06 -30.2173 -2.192 5.19339 -27.5632 -0 -0 60.6578 -7.30835e-05 13.9794 17.3384 4.24311 3.67793e-05 -42.6568 
-9.4389 86.291 4.1394 79.3724 -85.3894 -59.3203 0 -0 0 1.59705 -5.12815 -8.84636 25.3148 -7.15787 -2.91288e-05 58.2238 3.59174 3.7841 0 74.8485 0 -4.53661 7.4397 -0.29511 -28.0328 12.4126 0.000125043 -36.5482 -9.27571 0.212343 -180 -88.6271 180 7.97585 -2.52999 -0.176397 -17.9602 4.50036 -11.6741 2.59427 -2.19366 -12.9869 -0 -0 21.6338 6.79588e-07 -5.35256 -1.50892 0.141401 1.58026e-06 -34.0186 -2.978 5.27424 -28.8079 -0 -0 59.7991 -5.11386e-06 15.035 15.8426 4.19372 3.57583e-05 -41.6942 
-10.752 86.599 4.0341 87.538 -85.2703 -67.2632 0 -0 0 0.758685 -4.29816 -8.743 25.2139 -7.03756 3.48694e-06 57.8457 4.25809 5.46714 0 75.0455 0 -3.24867 7.38268 -0.209596 -28.0726 12.5742 8.20329e-05 -36.464 -8.54224 -0.233992 -180 -89.1784 180 7.93253 -2.42999 -0.168501 -17.6512 4.4748 -11.7424 2.16509 -2.25225 -12.0575 -0 -0 20.6732 -2.18535e-08 -4.58755 0.264996 -0.0213 1.73364e-07 -37.6907 -3.71724 5.30034 -30.023 -0 -0 58.7637 -6.65225e-05 15.9229 14.3633 4.04843 4.00933e-05 -40.7137 
-12.064 86.89 3.9195 95.2647 -85.115 -74.7411 0 -0 0 -0.034704 -3.50529 -8.6848 25.1094 -6.90878 -6.64515e-05 57.4051 4.97008 7.19723 0 75.3106 0 -2.15001 7.20776 -0.135401 -28.0516 12.7458 -0.000176513 -36.4331 -7.75948 -0.659515 -180 -89.5517 180 7.90802 -2.34496 -0.162098 -17.2902 4.47583 -11.8488 1.77266 -2.22953 -11.1986 -0 -0 19.7605 -4.54283e-07 -3.82482 2.11862 -0.141599 9.85178e-07 -41.0333 -4.3854 5.25024 -31.2154 -0 -0 57.5781 3.97871e-05 16.5931 12.9221 3.81222 8.1038e-05 -39.668 
-13.375 87.161 3.7964 102.387 -84.9092 -81.59 0 -0 0 -0.775908 -2.76424 -8.67067 24.9983 -6.767 -2.71407e-05 56.9102 5.71286 8.95389 3.31848e-07 75.6562 9.19575e-07 -1.22015 6.94031 -0.073997 -27.9693 12.9231 2.20086e-05 -36.4618 -6.91764 -1.06489 0 -89.8175 0 7.89316 -2.26756 -0.1565 -16.885 4.502 -11.9941 1.42346 -2.11866 -10.4122 -0 -0 18.9212 1.80352e-07 -3.08561 4.03429 -0.217297 -1.94026e-07 -43.9863 -4.96743 5.11109 -32.3824 -0 -0 56.2704 -4.08413e-05 17.0125 11.5258 3.49848 2.89252e-05 -38.4209 
-14.75 87.416 3.7119 117.933 -84.244 -97.0144 0 -0 0 -1.96977 -1.1893 -8.45341 25.0011 -6.61432 3.45383e-05 56.326 6.5464 10.7145 1.09264e-06 76.0677 1.39676e-06 -0.448194 6.61224 -0.0258997 -27.7844 13.0913 0.000165889 -36.5187 -6.07198 -1.47874 2.38343e-05 -89.5531 -2.44167e-05 7.87977 -2.19337 -0.151101 -16.3569 4.53118 -12.2266 0.663009 -1.10492 -9.61708 -0 -0 18.3884 -3.96433e-06 -2.29113 5.89557 -0.235497 1.52392e-06 -46.4595 -5.88786 5.83113 -33.1349 -0 -0 54.6371 -5.54358e-05 17.1707 10.13 3.11084 -1.68495e-06 -37.2387 
-16.064 87.639 3.5751 122.632 -83.9638 -101.402 0 -0 0 -2.5849 -0.591402 -8.5177 24.882 -6.47229 -6.49038e-05 55.7201 7.35719 12.4859 -1.02052e-06 76.5754 -8.05598e-07 0.215296 6.25361 0.0117998 -27.6143 13.2883 1.12329e-06 -36.6525 -5.14135 -1.82907 5.05267e-07 -89.3342 -1.10887e-06 7.85754 -2.11268 -0.1451 -15.8881 4.5879 -12.4539 0.418199 -0.852996 -8.97914 -0 -0 17.7607 -1.43931e-06 -1.64842 7.84725 -0.225098 4.94382e-07 -48.4578 -6.27874 5.50814 -34.2704 -0 -0 53.1654 -1.30084e-06 17.1056 8.91766 2.73114 -6.16205e-06 -36.1588 
-17.384 87.835 3.4341 126.63 -83.7029 -105.079 0 -0 0 -3.13374 -0.0768932 -8.60285 24.7605 -6.34342 -4.09814e-05 55.068 8.19905 14.2311 -1.06141e-06 77.1554 -8.46625e-07 0.79531 5.89738 0.0410006 -27.4136 13.494 0.000173258 -36.8275 -4.18173 -2.14052 7.09692e-06 -89.1034 -7.68956e-06 7.82057 -2.02606 -0.138503 -15.3945 4.64509 -12.715 0.229794 -0.5692 -8.40791 -0 -0 17.2574 1.08054e-06 -1.07531 9.77896 -0.182698 2.55335e-06 -50.0743 -6.5795 5.11181 -35.3864 -0 -0 51.6341 -3.76029e-05 16.839 7.81375 2.35624 1.02674e-07 -35.3563 
-18.711 88.005 3.2919 129.923 -83.4862 -108.051 0 -0 0 -3.62858 0.351396 -8.69647 24.6367 -6.2179 4.21609e-05 54.3874 9.04311 15.8959 -0 77.8176 -0 1.34035 5.56924 0.065203 -27.1959 13.7027 -1.42599e-06 -37.0281 -3.20411 -2.40624 1.17889e-05 -88.9264 -1.23499e-05 7.76434 -1.93315 -0.1312 -14.8758 4.69032 -13.0006 0.0881992 -0.298904 -7.89303 -0 -0 16.8829 3.07953e-06 -0.571799 11.6696 -0.115699 -1.03511e-07 -51.4974 -6.81478 4.66257 -36.4752 -0 -0 50.043 2.23611e-05 16.4165 6.80239 1.99855 -8.3716e-06 -34.8594 
-20.051 88.147 3.1505 132.523 -83.3093 -110.339 0 -0 0 -4.08271 0.69571 -8.78723 24.518 -6.10916 5.34729e-05 53.6828 9.89033 17.4573 9.62709e-07 78.5507 1.17723e-06 1.87255 5.28876 0.0865019 -26.9681 13.9122 -0.00017325 -37.2402 -2.22758 -2.61625 0 -88.8257 0 7.68622 -1.83845 -0.123499 -14.3264 4.71071 -13.3008 -0.0169998 -0.0829004 -7.42468 -0 -0 16.6363 -1.62503e-07 -0.1363 13.4969 -0.0317995 4.12495e-07 -52.8679 -7.01285 4.18277 -37.5295 -0 -0 48.3773 3.04428e-05 15.8818 5.8767 1.66855 2.06803e-05 -34.8256 
-21.407 88.262 3.0114 134.455 -83.1829 -111.976 0 -0 0 -4.51281 0.963855 -8.86757 24.4064 -6.0156 5.71262e-05 52.9762 10.7174 18.878 -0 79.3514 -0 2.41736 5.06478 0.106903 -26.7349 14.1165 2.24236e-05 -37.4533 -1.26629 -2.76153 5.87757e-06 -88.7471 -6.00827e-06 7.58644 -1.74822 -0.115903 -13.7354 4.69465 -13.6043 -0.0967998 0.0471002 -6.99021 -0 -0 16.5079 -1.65313e-07 0.235098 15.2434 0.0618008 9.74028e-10 -54.3361 -7.20346 3.69506 -38.533 -0 -0 46.6072 -7.16713e-06 15.2764 5.02537 1.37054 -2.59813e-05 -35.3299 
